<svg xmlns:mydata="http://www.w3.org/2000/svg" mydata:contrastcolor="000000" mydata:template="Contrast" mydata:presentation="2.5" mydata:layouttype="undefined" mydata:specialfontid="undefined" mydata:id1="292" mydata:id2="372" mydata:companyname="NEXTBASKET E-MARKET" mydata:companytagline="" version="1.1" xmlns="http://www.w3.org/2000/svg" xmlns:xlink="http://www.w3.org/1999/xlink" style="height: 496px;" viewBox="0 0 550 470"><g fill="#c7c9c7" fill-rule="nonzero" stroke="none" stroke-width="1" stroke-linecap="butt" stroke-linejoin="miter" stroke-miterlimit="10" stroke-dasharray="" stroke-dashoffset="0" font-family="none" font-weight="none" font-size="none" text-anchor="none" style="mix-blend-mode: normal"><g data-paper-data="{&quot;isGlobalGroup&quot;:true,&quot;bounds&quot;:{&quot;x&quot;:122.81171590408889,&quot;y&quot;:115,&quot;width&quot;:304.37656819182223,&quot;height&quot;:240}}"><g data-paper-data="{&quot;isSecondaryText&quot;:true}" id="element-id-21895"><path d="M174.64674,345.45477v-1.07573h-7.12105v10.60582h7.12105v-1.07573h-5.78774v-3.92415h5.1817v-1.07573h-5.1817v-3.45447z" data-paper-data="{&quot;glyphName&quot;:&quot;E&quot;,&quot;glyphIndex&quot;:0,&quot;firstGlyphOfWord&quot;:true,&quot;word&quot;:1}" fill="#c7c9c7" id="element-id-1788"></path><path d="M197.00622,351.43948v-1.01513h-4.99988v1.01513z" data-paper-data="{&quot;glyphName&quot;:&quot;-&quot;,&quot;glyphIndex&quot;:1,&quot;word&quot;:1}" fill="#c7c9c7" id="element-id-47357"></path><path d="M219.37411,354.98485h1.2727v-8.78768l3.62113,8.56041l0.0606,0.22727h0.87877l0.10606,-0.31817l3.59083,-8.4695v8.78768h1.2727v-10.60582h-0.7121h-0.56059h-0.49999l-3.60598,8.62101l-3.60598,-8.62101h-0.54544h-0.57574h-0.69695z" data-paper-data="{&quot;glyphName&quot;:&quot;M&quot;,&quot;glyphIndex&quot;:2,&quot;word&quot;:1}" fill="#c7c9c7" id="element-id-56114"></path><path d="M262.78561,354.98485h1.39391l-3.66658,-10.60582h-1.83329l-3.78779,10.60582h1.34845l0.90907,-2.5757h4.74231zM259.52811,345.62143l1.99995,5.77259h-4.03021z" data-paper-data="{&quot;glyphName&quot;:&quot;A&quot;,&quot;glyphIndex&quot;:3,&quot;word&quot;:1}" fill="#c7c9c7" id="element-id-31528"></path><path d="M291.87522,350.93949l2.19692,4.04536h1.42421l-2.33328,-4.18172c1.60602,-0.34848 2.30298,-1.40906 2.30298,-3.09084c0,-2.06056 -1.07573,-3.31811 -3.66658,-3.31811h-4.5302v10.60582h1.3333v-4.04536h3.1969h0.07576zM288.60257,349.92436v-4.46959h3.13629c1.69693,0 2.39388,0.72726 2.39388,2.24237c0,1.48481 -0.7121,2.22722 -2.39388,2.22722z" data-paper-data="{&quot;glyphName&quot;:&quot;R&quot;,&quot;glyphIndex&quot;:4,&quot;word&quot;:1}" fill="#c7c9c7" id="element-id-97278"></path><path d="M320.0625,344.37903h-1.3333v10.60582h1.3333v-4.93928l4.80292,4.93928h1.65148l-5.30291,-5.45442l4.99988,-5.1514h-1.65148l-4.4999,4.63626z" data-paper-data="{&quot;glyphName&quot;:&quot;K&quot;,&quot;glyphIndex&quot;:5,&quot;word&quot;:1}" fill="#c7c9c7" id="element-id-64932"></path><path d="M355.25636,345.45477v-1.07573h-7.12105v10.60582h7.12105v-1.07573h-5.78774v-3.92415h5.1817v-1.07573h-5.1817v-3.45447z" data-paper-data="{&quot;glyphName&quot;:&quot;E&quot;,&quot;glyphIndex&quot;:6,&quot;word&quot;:1}" fill="#c7c9c7" id="element-id-25875"></path><path d="M382.47431,344.37903h-7.95436v1.15149h3.30295v9.45433h1.3333v-9.45433h3.31811z" data-paper-data="{&quot;glyphName&quot;:&quot;T&quot;,&quot;glyphIndex&quot;:7,&quot;lastGlyphOfWord&quot;:true,&quot;word&quot;:1}" fill="#c7c9c7" id="element-id-9609"></path></g><g data-paper-data="{&quot;isPrimaryText&quot;:true}" id="element-id-5994"><path d="M150.26804,296.15362v31.40595l-23.6341,-31.40595h-3.82223v38.22226h4.07704v-31.40595l23.57039,31.40595h3.82223v-38.22226z" data-paper-data="{&quot;glyphName&quot;:&quot;N&quot;,&quot;glyphIndex&quot;:0,&quot;firstGlyphOfWord&quot;:true,&quot;word&quot;:1}" fill="#c7c9c7" id="element-id-54812"></path><path d="M184.79547,300.10325v-3.94963h-20.89483v38.22226h20.89483v-3.94963h-16.81779v-13.18668h14.65186v-3.94963h-14.65186v-13.18668z" data-paper-data="{&quot;glyphName&quot;:&quot;E&quot;,&quot;glyphIndex&quot;:1,&quot;word&quot;:1}" fill="#c7c9c7" id="element-id-49658"></path><path d="M219.19551,334.37588l-13.05927,-19.36594l12.74075,-18.85631h-4.90519l-10.06519,15.48001l-10.00149,-15.48001h-4.90519l12.67705,18.85631l-12.99557,19.36594h4.96889l10.25631,-15.98964l10.32001,15.98964z" data-paper-data="{&quot;glyphName&quot;:&quot;X&quot;,&quot;glyphIndex&quot;:2,&quot;word&quot;:1}" fill="#c7c9c7" id="element-id-48715"></path><path d="M245.05923,296.15362h-25.22669v4.07704h10.57482v34.14522h4.07704v-34.14522h10.57482z" data-paper-data="{&quot;glyphName&quot;:&quot;T&quot;,&quot;glyphIndex&quot;:3,&quot;word&quot;:1}" fill="#c7c9c7" id="element-id-46726"></path><path d="M269.13925,315.00993c3.3763,-1.52889 5.60593,-4.58667 5.60593,-8.66371c0,-5.98815 -4.71408,-10.1926 -10.57482,-10.1926h-13.88742v38.22226h15.2252c5.79704,0 10.44742,-4.14074 10.44742,-10.06519c0,-4.65037 -2.80297,-7.96297 -6.8163,-9.30075zM270.66814,306.66474c0,3.75852 -3.12148,6.62519 -6.94371,6.62519h-9.42816v-13.05927h9.42816c3.82223,0 6.94371,2.67556 6.94371,6.43408zM264.99851,330.29884h-10.70223v-13.05927h10.70223c3.75852,0 6.88001,2.86667 6.88001,6.62519c0,3.75852 -3.12148,6.43408 -6.88001,6.43408z" data-paper-data="{&quot;glyphName&quot;:&quot;B&quot;,&quot;glyphIndex&quot;:4,&quot;word&quot;:1}" fill="#c7c9c7" id="element-id-11590"></path><path d="M306.66077,334.37588h4.45926l-13.82372,-38.22226h-4.52297l-13.82372,38.22226h4.45926l3.12148,-8.91853h17.0089zM287.86816,321.57142l7.19852,-20.57631l7.13482,20.57631z" data-paper-data="{&quot;glyphName&quot;:&quot;A&quot;,&quot;glyphIndex&quot;:5,&quot;word&quot;:1}" fill="#c7c9c7" id="element-id-81488"></path><path d="M325.38967,334.88551c6.49778,0 11.7852,-3.88593 11.7852,-10.57482c0,-12.99557 -18.6015,-9.81038 -18.6015,-18.92002c0,-3.82223 3.12148,-5.66963 6.68889,-5.66963c2.93037,0 5.35112,1.21037 6.88001,3.3763l3.18519,-2.67556c-2.10222,-2.67556 -5.79704,-4.77778 -10.1926,-4.77778c-5.86075,0 -10.63853,3.82223 -10.63853,10.06519c0,12.29483 18.6015,9.23705 18.6015,18.72891c0,4.07704 -3.3763,6.37038 -7.64445,6.37038c-4.33186,0 -7.45334,-2.35704 -8.79112,-5.86075l-3.69482,2.16593c1.97482,4.71408 6.7526,7.77186 12.42223,7.77186z" data-paper-data="{&quot;glyphName&quot;:&quot;S&quot;,&quot;glyphIndex&quot;:6,&quot;word&quot;:1}" fill="#c7c9c7" id="element-id-69990"></path><path d="M366.4786,334.37588h5.66963l-18.15557,-20.57631l17.45483,-17.64594h-5.66963l-15.35261,15.67113h-2.67556v-15.67113h-4.07704v38.22226h4.07704v-18.72891h2.73926z" data-paper-data="{&quot;glyphName&quot;:&quot;K&quot;,&quot;glyphIndex&quot;:7,&quot;word&quot;:1}" fill="#c7c9c7" id="element-id-63277"></path><path d="M397.56604,300.10325v-3.94963h-20.89483v38.22226h20.89483v-3.94963h-16.81779v-13.18668h14.65186v-3.94963h-14.65186v-13.18668z" data-paper-data="{&quot;glyphName&quot;:&quot;E&quot;,&quot;glyphIndex&quot;:8,&quot;word&quot;:1}" fill="#c7c9c7" id="element-id-69157"></path><path d="M427.18828,296.15362h-25.22669v4.07704h10.57482v34.14522h4.07704v-34.14522h10.57482z" data-paper-data="{&quot;glyphName&quot;:&quot;T&quot;,&quot;glyphIndex&quot;:9,&quot;lastGlyphOfWord&quot;:true,&quot;word&quot;:1}" fill="#c7c9c7" id="element-id-1778"></path></g><g data-paper-data="{&quot;fillRule&quot;:&quot;nonzero&quot;,&quot;fillRuleOriginal&quot;:&quot;nonzero&quot;,&quot;isIcon&quot;:true,&quot;iconStyle&quot;:&quot;standalone&quot;,&quot;selectedEffects&quot;:{&quot;container&quot;:&quot;&quot;,&quot;transformation&quot;:&quot;&quot;,&quot;pattern&quot;:&quot;&quot;},&quot;bounds&quot;:{&quot;x&quot;:218.1255801250795,&quot;y&quot;:115,&quot;width&quot;:113.74883974984098,&quot;height&quot;:151.96327116330394},&quot;iconType&quot;:&quot;initial&quot;,&quot;initialText&quot;:&quot;N&quot;,&quot;rawInitialId&quot;:565,&quot;suitableAsStandaloneIcon&quot;:true}" id="element-id-70518"><path d="M220.42206,116.30371c-0.62418,0.20806 -4.57735,139.81725 -0.41612,147.51552c1.87255,3.32898 50.35086,3.7451 81.76812,2.49673c-21.0142,-24.34318 -34.33013,-53.05565 -34.33013,-53.26371c-1.66449,-3.53704 0,-7.69827 3.32898,-9.1547c3.53704,-1.66449 7.69827,-0.20806 9.36276,3.32898c4.99348,10.40307 35.16237,67.61995 48.06218,56.5927c4.16123,-3.95316 5.82572,-142.73011 -0.62418,-148.76389c-0.20806,-0.20806 -47.02187,0.20806 -78.43914,0.62418c20.80614,24.34318 34.12207,53.05565 34.12207,53.26371c1.66449,3.53704 0,7.69827 -3.53704,9.1547c-3.32898,1.66449 -7.49021,0.20806 -9.1547,-3.12092c-5.4096,-11.8595 -35.99462,-67.20383 -50.1428,-58.67331z" data-paper-data="{&quot;isPathIcon&quot;:true}" fill="#c7c9c7" id="element-id-86224"></path></g></g></g><g class="watermark-group" style="opacity:0.040000010281801224"><path class="watermark-path" d="M129.52,370.3a11.88,11.88,0,0,1,2.58,5.58,12,12,0,0,1,.11,3,11.81,11.81,0,0,1-.64,2.93,12.34,12.34,0,0,1-1.41,2.72,11.65,11.65,0,0,1-2.13,2.32,12,12,0,0,1-2.64,1.69,13,13,0,0,1-2.91.9,12.47,12.47,0,0,1-3,.12,12.17,12.17,0,0,1-2.93-.64,11.8,11.8,0,0,1-2.72-1.38,12.19,12.19,0,0,1-4-4.79,11.85,11.85,0,0,1-.89-2.92,12.14,12.14,0,0,1-.13-3,11.54,11.54,0,0,1,.64-2.92,11.67,11.67,0,0,1,3.5-5,11.44,11.44,0,0,1,2.67-1.69,11.64,11.64,0,0,1,2.92-.91,10.71,10.71,0,0,1,3-.12,11.68,11.68,0,0,1,5.66,2,11.7,11.7,0,0,1,2.34,2.12m-1.4,8.76a13,13,0,0,1-1.22,2.32,9.68,9.68,0,0,1-1.81,2,7.44,7.44,0,0,1-2.38,1.37,6.17,6.17,0,0,1-5.11-.46,8.73,8.73,0,0,1-3.85-4.58,6.69,6.69,0,0,1-.34-2.66,6.09,6.09,0,0,1,.77-2.47,7.15,7.15,0,0,1,1.75-2.11,9.58,9.58,0,0,1,1.09-.81,8.23,8.23,0,0,1,1.12-.63,8.14,8.14,0,0,1,1.19-.46,12.71,12.71,0,0,1,1.32-.37l2,2.38a12.83,12.83,0,0,0-1.56.17,7.86,7.86,0,0,0-1.23.32,4.5,4.5,0,0,0-1,.49,6.41,6.41,0,0,0-.93.67,4.49,4.49,0,0,0-1.15,1.39,3.87,3.87,0,0,0-.45,1.58,4.12,4.12,0,0,0,.26,1.63,6.11,6.11,0,0,0,2.36,2.82,4.43,4.43,0,0,0,1.57.53,3.91,3.91,0,0,0,1.62-.17,4.71,4.71,0,0,0,1.57-.89,10.5,10.5,0,0,0,.83-.79,5.71,5.71,0,0,0,.65-.93,10.13,10.13,0,0,0,.54-1.14,12.24,12.24,0,0,0,.44-1.49l2,2.33m-14.46,4.55a8.86,8.86,0,0,0,2.78,2.22,9,9,0,0,0,3.29.94,9.15,9.15,0,0,0,3.39-.37,8.68,8.68,0,0,0,3.11-1.69,8.8,8.8,0,0,0,2.22-2.78,9.15,9.15,0,0,0,1-3.29,8.95,8.95,0,0,0-4.83-8.76,9,9,0,0,0-6.73-.57,9,9,0,0,0-5.33,4.47,8.94,8.94,0,0,0-.57,6.71,8.76,8.76,0,0,0,1.7,3.12"></path><path class="watermark-path" d="M147,349c-.48.12-1.09.31-1.82.57a24.37,24.37,0,0,0-2.4,1A28.35,28.35,0,0,0,140,352a20.72,20.72,0,0,0-2.71,1.94c-.7.59-1.28,1.11-1.74,1.57a15.07,15.07,0,0,0-1.1,1.22,4.09,4.09,0,0,0-.59.92,2.32,2.32,0,0,0-.22.64,1.16,1.16,0,0,0,0,.47,1.83,1.83,0,0,0,.18.29,1.15,1.15,0,0,0,1,.37,5.54,5.54,0,0,0,1.51-.38q.87-.35,1.95-.9l2.26-1.18q1.2-.65,2.49-1.29c.87-.44,1.73-.83,2.59-1.17a18.94,18.94,0,0,1,2.6-.81,9.27,9.27,0,0,1,2.46-.29,6.25,6.25,0,0,1,2.24.49,5.12,5.12,0,0,1,1.89,1.47,6.35,6.35,0,0,1,1.41,2.61,6,6,0,0,1,.09,2.6,8.3,8.3,0,0,1-.9,2.52,17.79,17.79,0,0,1-1.62,2.37,23.92,23.92,0,0,1-2,2.15c-.72.67-1.41,1.29-2.09,1.87a33.79,33.79,0,0,1-5.33,3.7,32.29,32.29,0,0,1-4.91,2.28l-3.61-4.3a21.38,21.38,0,0,0,5.39-1.87,27.2,27.2,0,0,0,5.4-3.56,21.59,21.59,0,0,0,2.38-2.27,8.67,8.67,0,0,0,1.18-1.7,2.32,2.32,0,0,0,.27-1.19,1.34,1.34,0,0,0-.28-.74,1.21,1.21,0,0,0-1-.42,4.32,4.32,0,0,0-1.55.34,15.77,15.77,0,0,0-2,.88c-.72.37-1.48.77-2.27,1.21l-2.45,1.3c-.85.45-1.7.85-2.56,1.21a22.37,22.37,0,0,1-2.54.86,10,10,0,0,1-2.43.32,5.76,5.76,0,0,1-2.2-.45,5,5,0,0,1-1.89-1.45,6.12,6.12,0,0,1-1.31-2.41,6,6,0,0,1-.1-2.41,8.28,8.28,0,0,1,.81-2.38,14.06,14.06,0,0,1,1.49-2.24,22.37,22.37,0,0,1,1.85-2.05q1-1,2-1.77c.7-.59,1.44-1.15,2.23-1.7s1.62-1.06,2.44-1.53,1.63-.91,2.43-1.3,1.58-.75,2.3-1L147,349"></path><path class="watermark-path" d="M186.76,337.57l-10.6-12.63,3.92,18.24-4.66,3.91-17.27-7,10.6,12.63-4.86,4.07-15.09-18,6.59-5.54,18.69,7.52-4.15-19.71,6.57-5.52,15.09,18-4.83,4.05"></path><path class="watermark-path" d="M208.84,313.24l-10,8.42,1.16,4.82L194.56,331l-5.68-25.89,5.42-4.55,24.51,10.09-5.42,4.55-4.55-2m-11.23,3.45,6.57-5.52-8.83-3.87,2.26,9.39"></path><path class="watermark-path" d="M227.49,281.38c-.48.12-1.09.31-1.82.57a24.37,24.37,0,0,0-2.4,1,26.11,26.11,0,0,0-2.7,1.47,20.72,20.72,0,0,0-2.71,1.94c-.7.59-1.28,1.11-1.74,1.57a13.39,13.39,0,0,0-1.1,1.22,4.29,4.29,0,0,0-.59.91,2.48,2.48,0,0,0-.22.65,1.16,1.16,0,0,0,0,.47,1.83,1.83,0,0,0,.18.29,1.15,1.15,0,0,0,1,.37,5.54,5.54,0,0,0,1.51-.38q.87-.34,2-.9l2.26-1.18q1.2-.64,2.49-1.29c.87-.44,1.73-.83,2.59-1.17a18.94,18.94,0,0,1,2.6-.81,9.27,9.27,0,0,1,2.46-.29,6.08,6.08,0,0,1,2.24.49,5.09,5.09,0,0,1,1.89,1.46,6.47,6.47,0,0,1,1.41,2.61,6.07,6.07,0,0,1,.09,2.61,8.3,8.3,0,0,1-.9,2.52,16.32,16.32,0,0,1-1.63,2.36,21.41,21.41,0,0,1-2,2.16c-.72.67-1.41,1.29-2.1,1.86a33.36,33.36,0,0,1-5.32,3.71,31.92,31.92,0,0,1-4.92,2.28l-3.6-4.3a21.38,21.38,0,0,0,5.39-1.87,27.2,27.2,0,0,0,5.4-3.56,21.59,21.59,0,0,0,2.38-2.27,8.67,8.67,0,0,0,1.18-1.7A2.32,2.32,0,0,0,231,293a1.34,1.34,0,0,0-.28-.74,1.21,1.21,0,0,0-1-.42,4.32,4.32,0,0,0-1.55.34,16.54,16.54,0,0,0-2,.88c-.71.37-1.47.77-2.26,1.21l-2.46,1.3c-.84.44-1.7.85-2.55,1.21a24.53,24.53,0,0,1-2.54.86A10,10,0,0,1,214,298a5.76,5.76,0,0,1-2.2-.45,5,5,0,0,1-1.89-1.45,6.12,6.12,0,0,1-1.31-2.41,5.78,5.78,0,0,1-.1-2.41,8,8,0,0,1,.81-2.38,14.61,14.61,0,0,1,1.49-2.25,22.26,22.26,0,0,1,1.85-2q1-1,2-1.77c.7-.59,1.44-1.15,2.23-1.7s1.62-1.06,2.44-1.53,1.63-.91,2.43-1.31,1.58-.74,2.3-1l3.5,4.16"></path><path class="watermark-path" d="M261.64,274.74l-6.29-7.5L243,277.61l6.3,7.5-4.86,4.07-15.09-18,4.85-4.08,5.49,6.55L252,263.3l-5.49-6.55,4.86-4.07,15.09,18-4.86,4.08"></path><path class="watermark-path" d="M272.18,265.9l-15.09-18,4.86-4.08,15.09,18-4.86,4.08"></path><path class="watermark-path" d="M299.65,242.85l-22.51-2.18L287.51,253l-4.85,4.08-15.1-18,5.28-4.43,22.56,2.22L285,224.5l4.83-4.06,15.09,18-5.26,4.42"></path><path class="watermark-path" d="M306.68,205.52a31.88,31.88,0,0,1,5.29-3.66,34.48,34.48,0,0,1,5.14-2.35l3.69,4.39a20.77,20.77,0,0,0-2.37.61,20.47,20.47,0,0,0-2.61,1,25.12,25.12,0,0,0-2.76,1.49,23.9,23.9,0,0,0-2.8,2,20.42,20.42,0,0,0-2.8,2.77,12.77,12.77,0,0,0-1.64,2.52,7,7,0,0,0-.68,2.24,6,6,0,0,0,.66,3.64,8.16,8.16,0,0,0,.94,1.38,9.12,9.12,0,0,0,1.08,1.07,6.39,6.39,0,0,0,1.47.91,6.73,6.73,0,0,0,1.88.48,6.54,6.54,0,0,0,2.28-.18,11.67,11.67,0,0,0,2.74-1.07,19.38,19.38,0,0,0,3.18-2.22c.57-.48,1.06-.92,1.46-1.31a14.57,14.57,0,0,0,1-1.13,11.46,11.46,0,0,0,.81-1.05l.74-1.09-1.82-2.17-5.45,4.57-3.31-3.94,10.31-8.65,7.71,9.19a29,29,0,0,1-1.67,2.43q-1,1.26-2.1,2.52c-.74.84-1.5,1.65-2.3,2.44s-1.58,1.5-2.33,2.14a31,31,0,0,1-3.59,2.61,22.55,22.55,0,0,1-3.64,1.83,15.64,15.64,0,0,1-3.63.89,10.72,10.72,0,0,1-3.49-.15,10.45,10.45,0,0,1-3.28-1.33,12.54,12.54,0,0,1-3-2.67,12,12,0,0,1-2.08-3.44,10.45,10.45,0,0,1-.71-3.5,11.14,11.14,0,0,1,.51-3.51,15.72,15.72,0,0,1,1.56-3.43,21.62,21.62,0,0,1,2.42-3.28,30.3,30.3,0,0,1,3.15-3"></path><path class="watermark-path" d="M336.91,211.59l-15.1-18,4.86-4.08,11.79,14,13.13-11,3.31,3.94-18,15.1"></path><path class="watermark-path" d="M374.54,164.71a12.28,12.28,0,0,1,2.59,4.81,10.44,10.44,0,0,1,0,5,14.62,14.62,0,0,1-2.33,5,25.55,25.55,0,0,1-4.56,4.85,26.07,26.07,0,0,1-5.6,3.67,14.79,14.79,0,0,1-5.38,1.43,10.43,10.43,0,0,1-4.94-.89,13.24,13.24,0,0,1-6.87-8.18,10.48,10.48,0,0,1,0-5,14.51,14.51,0,0,1,2.36-5,25.23,25.23,0,0,1,4.57-4.89,25,25,0,0,1,5.59-3.64,14.45,14.45,0,0,1,5.35-1.43,10.31,10.31,0,0,1,4.93.92,12.22,12.22,0,0,1,4.28,3.38m-4.91,4.11a8.36,8.36,0,0,0-2-1.72,5.5,5.5,0,0,0-2.65-.85,7.72,7.72,0,0,0-3.32.57,14.49,14.49,0,0,0-4,2.52,16.72,16.72,0,0,0-2.38,2.4,10.15,10.15,0,0,0-1.39,2.24,6.71,6.71,0,0,0-.56,2.1,5.69,5.69,0,0,0,.1,1.9,6.21,6.21,0,0,0,.61,1.69,9.85,9.85,0,0,0,1,1.44,10.48,10.48,0,0,0,1.26,1.23,6.67,6.67,0,0,0,1.57.92,6.1,6.1,0,0,0,1.85.41,6.8,6.8,0,0,0,2.15-.2,11.06,11.06,0,0,0,2.45-1,17.67,17.67,0,0,0,2.77-1.94,14.39,14.39,0,0,0,3.18-3.52,7.74,7.74,0,0,0,1.14-3.17,5.54,5.54,0,0,0-.37-2.74,8.52,8.52,0,0,0-1.36-2.3"></path><path class="watermark-path" d="M382.66,141.76A32.3,32.3,0,0,1,388,138.1a34.12,34.12,0,0,1,5.15-2.35l3.69,4.4a19.62,19.62,0,0,0-2.37.6,22.08,22.08,0,0,0-2.61,1,26,26,0,0,0-2.77,1.49,23.9,23.9,0,0,0-2.8,2,21,21,0,0,0-2.8,2.78,13.19,13.19,0,0,0-1.64,2.51,7.29,7.29,0,0,0-.68,2.24,6.36,6.36,0,0,0,.06,2,5.8,5.8,0,0,0,.61,1.68,8.12,8.12,0,0,0,.93,1.38,9.16,9.16,0,0,0,1.08,1.08,6.56,6.56,0,0,0,1.48.9,6,6,0,0,0,1.87.48,6.76,6.76,0,0,0,2.28-.17,12,12,0,0,0,2.74-1.08,18.57,18.57,0,0,0,3.18-2.22c.58-.48,1.06-.92,1.46-1.31s.75-.77,1.05-1.12.57-.72.81-1.06l.73-1.09-1.82-2.17-5.45,4.57-3.3-3.94,10.3-8.65,7.71,9.19a29,29,0,0,1-1.67,2.43q-1,1.26-2.1,2.52c-.73.84-1.5,1.66-2.3,2.44s-1.57,1.5-2.33,2.14a31,31,0,0,1-3.59,2.61,22.15,22.15,0,0,1-3.64,1.83,15.56,15.56,0,0,1-3.62.89,11,11,0,0,1-3.49-.14,10.84,10.84,0,0,1-3.28-1.33,12.82,12.82,0,0,1-3-2.68,12.12,12.12,0,0,1-2.08-3.43A10.71,10.71,0,0,1,375,155a11.18,11.18,0,0,1,.51-3.51,15.51,15.51,0,0,1,1.57-3.43,21.44,21.44,0,0,1,2.42-3.28,30.19,30.19,0,0,1,3.14-3"></path><path class="watermark-path" d="M428.63,119.31a12.26,12.26,0,0,1,2.59,4.82,10.44,10.44,0,0,1,0,5,14.53,14.53,0,0,1-2.34,5,25.29,25.29,0,0,1-4.56,4.86,26,26,0,0,1-5.59,3.67,14.84,14.84,0,0,1-5.38,1.43,10.61,10.61,0,0,1-4.95-.89,12.15,12.15,0,0,1-4.3-3.37,12,12,0,0,1-2.56-4.81,10.48,10.48,0,0,1,0-5,14.39,14.39,0,0,1,2.35-5,27.89,27.89,0,0,1,10.16-8.53,14.49,14.49,0,0,1,5.36-1.43,10.27,10.27,0,0,1,4.92.92,12.21,12.21,0,0,1,4.28,3.37m-4.91,4.12a8.17,8.17,0,0,0-2-1.72,5.58,5.58,0,0,0-2.65-.86,7.86,7.86,0,0,0-3.31.58,14.49,14.49,0,0,0-4,2.52,16.21,16.21,0,0,0-2.38,2.4,9.85,9.85,0,0,0-1.4,2.24,7,7,0,0,0-.56,2.1,6,6,0,0,0,.1,1.9,6.23,6.23,0,0,0,.62,1.69,8.49,8.49,0,0,0,1,1.44,9.18,9.18,0,0,0,1.26,1.23,6.67,6.67,0,0,0,1.57.92,6,6,0,0,0,1.84.41,6.86,6.86,0,0,0,2.16-.2,11.26,11.26,0,0,0,2.45-1,17.62,17.62,0,0,0,2.76-1.94,14.67,14.67,0,0,0,3.19-3.52,7.71,7.71,0,0,0,1.13-3.17,5.53,5.53,0,0,0-.36-2.74,8.55,8.55,0,0,0-1.37-2.3"></path></g><rect data-element-id="element-id-70518" stroke-width="2" fill="transparent" class="invisible-element-box grouping-element" x="218" y="115" width="114" height="152" data-element-name="isIcon"></rect><rect data-element-id="element-id-86224" stroke-width="2" fill="transparent" class="invisible-element-box individual-element" x="218" y="115" width="114" height="152"></rect><rect data-element-id="element-id-5994" stroke-width="2" fill="transparent" class="invisible-element-box grouping-element" x="123" y="296" width="304" height="39" data-element-name="isPrimaryText"></rect><rect data-element-id="element-id-21895" stroke-width="2" fill="transparent" class="invisible-element-box grouping-element" x="168" y="344" width="215" height="11" data-element-name="isSecondaryText"></rect><rect data-element-id="element-id-81488" stroke-width="2" fill="transparent" class="invisible-element-box individual-element" x="279" y="296" width="32" height="38"></rect><rect data-element-id="element-id-54812" stroke-width="2" fill="transparent" class="invisible-element-box individual-element" x="123" y="296" width="31" height="38"></rect><rect data-element-id="element-id-48715" stroke-width="2" fill="transparent" class="invisible-element-box individual-element" x="189" y="296" width="31" height="38"></rect><rect data-element-id="element-id-63277" stroke-width="2" fill="transparent" class="invisible-element-box individual-element" x="344" y="296" width="28" height="38"></rect><rect data-element-id="element-id-11590" stroke-width="2" fill="transparent" class="invisible-element-box individual-element" x="250" y="296" width="26" height="38"></rect><rect data-element-id="element-id-46726" stroke-width="2" fill="transparent" class="invisible-element-box individual-element" x="220" y="296" width="25" height="38"></rect><rect data-element-id="element-id-1778" stroke-width="2" fill="transparent" class="invisible-element-box individual-element" x="402" y="296" width="25" height="38"></rect><rect data-element-id="element-id-69990" stroke-width="2" fill="transparent" class="invisible-element-box individual-element" x="313" y="296" width="24" height="39"></rect><rect data-element-id="element-id-49658" stroke-width="2" fill="transparent" class="invisible-element-box individual-element" x="164" y="296" width="21" height="38"></rect><rect data-element-id="element-id-69157" stroke-width="2" fill="transparent" class="invisible-element-box individual-element" x="377" y="296" width="21" height="38"></rect><rect data-element-id="element-id-56114" stroke-width="2" fill="transparent" class="invisible-element-box individual-element" x="219" y="344" width="11" height="11"></rect><rect data-element-id="element-id-31528" stroke-width="2" fill="transparent" class="invisible-element-box individual-element" x="255" y="344" width="9" height="11"></rect><rect data-element-id="element-id-97278" stroke-width="2" fill="transparent" class="invisible-element-box individual-element" x="287" y="344" width="8" height="11"></rect><rect data-element-id="element-id-64932" stroke-width="2" fill="transparent" class="invisible-element-box individual-element" x="319" y="344" width="8" height="11"></rect><rect data-element-id="element-id-9609" stroke-width="2" fill="transparent" class="invisible-element-box individual-element" x="375" y="344" width="8" height="11"></rect><rect data-element-id="element-id-1788" stroke-width="2" fill="transparent" class="invisible-element-box individual-element" x="168" y="344" width="7" height="11"></rect><rect data-element-id="element-id-25875" stroke-width="2" fill="transparent" class="invisible-element-box individual-element" x="348" y="344" width="7" height="11"></rect><rect data-element-id="element-id-47357" stroke-width="2" fill="transparent" class="invisible-element-box individual-element" x="192" y="350" width="5" height="1"></rect></svg>